# xmcd
#
# Track frame offsets:
#	150
#	11208
#	23581
#	35877
#	48845
#	58959
#	71208
#	86116
#	99539
#	115544
#	128900
#	141908
#	154920
#	174534
#	191707
#	209107
#	224818
#	256179
#	273973
#	287506
#	306421
#
# Disc length: 4243
#
# Revision: 1
# Processed by: cddbd v1.5.1PL0 Copyright (c) Steve Scherf et al.
# Submitted via: audiograbber 1.81.01
# Normalized: r0:DSETVAR1
#
DISCID=4d109115
DTITLE=Various Artist - Motown 40 Forever
DYEAR=1900
DGENRE=Soul
TTITLE0=The Marvelettes - Please Mr. Postman
TTITLE1=Smokey Robinson and The Miracles - Shop around
TTITLE2=Martha Reeves and The Vandellas - Heat wave
TTITLE3=Mary Wells - My guy
TTITLE4=Marvin Gaye and Tammi Terrell - Ain't nothing like the real thing
TTITLE5=Four Tops - I can't help myself (sugar pie honey bunch)
TTITLE6=The Originals - Baby I'm for real
TTITLE7=Jimmy Ruffin - What becomes of the brokenhearted
TTITLE8=Eddie Kendricks - Keep on truckin'
TTITLE9=The Jackson Five - ABC
TTITLE10=Diana Ross and The Supremes - Stop! In the name of love
TTITLE11=Stevie Wonder - My cherie amour
TTITLE12=Gladys Knight and The Pips - Neither one of us (wants to be the first to say goodbye)
TTITLE13=The Temptations - Just my imagination (running away with me)
TTITLE14=Marvin Gaye - What's going on
TTITLE15=Diana Ross and The Supremes - Someday we'll be together
TTITLE16=The Temptations - Papa was a rollin' stone
TTITLE17=The Jackson Five - I'll be there
TTITLE18=Smokey Robinson - Tears of a clown
TTITLE19=Diana Ross - When you tell me you love me
TTITLE20=Martha Reeves and The Vandellas - Dancing in the street
EXTD=Chung PIC
EXTT0=The Marvelettes\n
EXTT1=Smokey Robinson and The Miracles\n
EXTT2=Martha Reeves and The Vandellas\n
EXTT3=Mary Wells\n
EXTT4=Marvin Gaye and Tammi Terrell\n
EXTT5=Four Tops\n
EXTT6=The Originals\n
EXTT7=Jimmy Ruffin\n
EXTT8=Eddie Kendricks\n
EXTT9=Jackson 5\n
EXTT10=Diana Ross and The Supremes\n
EXTT11=Stevie Wonder\n
EXTT12=Gladys Knight and The Pips\n
EXTT13=The Temptations\n
EXTT14=Marvin Gaye\n
EXTT15=Diana Ross and The Supremes\n
EXTT16=The Temptations\n
EXTT17=Jackson 5\n
EXTT18=Smokey Robinson\n
EXTT19=Diana Ross\n
EXTT20=Martha Reeves and The Vandellas\n
PLAYORDER=
